<mxfile host="app.diagrams.net" modified="2024-06-10T08:22:59.419Z" agent="Mozilla/5.0 (Windows NT 10.0; Win64; x64) AppleWebKit/537.36 (KHTML, like Gecko) Chrome/125.0.0.0 Safari/537.36" etag="Zud6aTu8aolIS61P8qm5" version="24.4.13" type="google">
  <diagram name="Page-1" id="rSOEcyLVFhZwJoYo9mGS">
    <mxGraphModel grid="1" page="1" gridSize="10" guides="1" tooltips="1" connect="1" arrows="1" fold="1" pageScale="1" pageWidth="850" pageHeight="1100" math="0" shadow="0">
      <root>
        <mxCell id="0" />
        <mxCell id="1" parent="0" />
        <mxCell id="Wj6WKn07O_vQE6K_EIfa-8" value="" style="edgeStyle=orthogonalEdgeStyle;rounded=0;orthogonalLoop=1;jettySize=auto;html=1;" edge="1" parent="1" source="Wj6WKn07O_vQE6K_EIfa-1" target="Wj6WKn07O_vQE6K_EIfa-3">
          <mxGeometry relative="1" as="geometry" />
        </mxCell>
        <mxCell id="Wj6WKn07O_vQE6K_EIfa-1" value="START" style="ellipse;whiteSpace=wrap;html=1;" vertex="1" parent="1">
          <mxGeometry x="50" y="200" width="120" height="80" as="geometry" />
        </mxCell>
        <mxCell id="Wj6WKn07O_vQE6K_EIfa-9" value="" style="edgeStyle=orthogonalEdgeStyle;rounded=0;orthogonalLoop=1;jettySize=auto;html=1;" edge="1" parent="1" source="Wj6WKn07O_vQE6K_EIfa-3" target="Wj6WKn07O_vQE6K_EIfa-4">
          <mxGeometry relative="1" as="geometry" />
        </mxCell>
        <mxCell id="Wj6WKn07O_vQE6K_EIfa-3" value="Input angka" style="shape=parallelogram;perimeter=parallelogramPerimeter;whiteSpace=wrap;html=1;fixedSize=1;" vertex="1" parent="1">
          <mxGeometry x="210" y="210" width="120" height="60" as="geometry" />
        </mxCell>
        <mxCell id="Wj6WKn07O_vQE6K_EIfa-10" value="" style="edgeStyle=orthogonalEdgeStyle;rounded=0;orthogonalLoop=1;jettySize=auto;html=1;" edge="1" parent="1" source="Wj6WKn07O_vQE6K_EIfa-4" target="Wj6WKn07O_vQE6K_EIfa-5">
          <mxGeometry relative="1" as="geometry" />
        </mxCell>
        <mxCell id="Wj6WKn07O_vQE6K_EIfa-4" value="angkaString = &quot;&quot;&lt;div&gt;i = 0&lt;/div&gt;&lt;div&gt;arr = []&lt;/div&gt;" style="rounded=0;whiteSpace=wrap;html=1;" vertex="1" parent="1">
          <mxGeometry x="365" y="210" width="120" height="60" as="geometry" />
        </mxCell>
        <mxCell id="Wj6WKn07O_vQE6K_EIfa-15" value="FALSE" style="edgeStyle=orthogonalEdgeStyle;rounded=0;orthogonalLoop=1;jettySize=auto;html=1;" edge="1" parent="1" source="Wj6WKn07O_vQE6K_EIfa-5" target="Wj6WKn07O_vQE6K_EIfa-14">
          <mxGeometry relative="1" as="geometry" />
        </mxCell>
        <mxCell id="Wj6WKn07O_vQE6K_EIfa-5" value="i &amp;lt; angka.length" style="rhombus;whiteSpace=wrap;html=1;" vertex="1" parent="1">
          <mxGeometry x="520" y="180" width="120" height="120" as="geometry" />
        </mxCell>
        <mxCell id="Wj6WKn07O_vQE6K_EIfa-12" value="" style="edgeStyle=orthogonalEdgeStyle;rounded=0;orthogonalLoop=1;jettySize=auto;html=1;" edge="1" parent="1" source="Wj6WKn07O_vQE6K_EIfa-6" target="Wj6WKn07O_vQE6K_EIfa-7">
          <mxGeometry relative="1" as="geometry" />
        </mxCell>
        <mxCell id="Wj6WKn07O_vQE6K_EIfa-6" value="angkaString = angkaString + angkaString[angka.length]" style="rounded=0;whiteSpace=wrap;html=1;" vertex="1" parent="1">
          <mxGeometry x="680" y="70" width="180" height="90" as="geometry" />
        </mxCell>
        <mxCell id="Wj6WKn07O_vQE6K_EIfa-13" value="" style="edgeStyle=orthogonalEdgeStyle;rounded=0;orthogonalLoop=1;jettySize=auto;html=1;" edge="1" parent="1" source="Wj6WKn07O_vQE6K_EIfa-7" target="Wj6WKn07O_vQE6K_EIfa-5">
          <mxGeometry relative="1" as="geometry" />
        </mxCell>
        <mxCell id="Wj6WKn07O_vQE6K_EIfa-7" value="i = i + 1" style="rounded=0;whiteSpace=wrap;html=1;" vertex="1" parent="1">
          <mxGeometry x="520" y="85" width="120" height="60" as="geometry" />
        </mxCell>
        <mxCell id="Wj6WKn07O_vQE6K_EIfa-11" value="TRUE" style="edgeStyle=orthogonalEdgeStyle;rounded=0;orthogonalLoop=1;jettySize=auto;html=1;exitX=1;exitY=0.5;exitDx=0;exitDy=0;entryX=0.539;entryY=1.033;entryDx=0;entryDy=0;entryPerimeter=0;" edge="1" parent="1" source="Wj6WKn07O_vQE6K_EIfa-5" target="Wj6WKn07O_vQE6K_EIfa-6">
          <mxGeometry relative="1" as="geometry" />
        </mxCell>
        <mxCell id="Wj6WKn07O_vQE6K_EIfa-20" value="TRUE" style="edgeStyle=orthogonalEdgeStyle;rounded=0;orthogonalLoop=1;jettySize=auto;html=1;" edge="1" parent="1" source="Wj6WKn07O_vQE6K_EIfa-14" target="Wj6WKn07O_vQE6K_EIfa-18">
          <mxGeometry relative="1" as="geometry" />
        </mxCell>
        <mxCell id="Wj6WKn07O_vQE6K_EIfa-14" value="angkaString[i] === 0&lt;div&gt;OR&lt;/div&gt;&lt;div&gt;i === angka.length -1&lt;/div&gt;" style="rhombus;whiteSpace=wrap;html=1;" vertex="1" parent="1">
          <mxGeometry x="505" y="360" width="155" height="140" as="geometry" />
        </mxCell>
        <mxCell id="Wj6WKn07O_vQE6K_EIfa-16" value="5956560159466056" style="text;html=1;align=center;verticalAlign=middle;whiteSpace=wrap;rounded=0;" vertex="1" parent="1">
          <mxGeometry x="260" y="170" width="40" height="30" as="geometry" />
        </mxCell>
        <mxCell id="Wj6WKn07O_vQE6K_EIfa-22" style="edgeStyle=orthogonalEdgeStyle;rounded=0;orthogonalLoop=1;jettySize=auto;html=1;exitX=0;exitY=0.5;exitDx=0;exitDy=0;entryX=0.5;entryY=1;entryDx=0;entryDy=0;" edge="1" parent="1" source="Wj6WKn07O_vQE6K_EIfa-17" target="Wj6WKn07O_vQE6K_EIfa-19">
          <mxGeometry relative="1" as="geometry" />
        </mxCell>
        <mxCell id="Wj6WKn07O_vQE6K_EIfa-17" value="arr = arr + angkaString[i]" style="rounded=0;whiteSpace=wrap;html=1;" vertex="1" parent="1">
          <mxGeometry x="522.5" y="700" width="120" height="60" as="geometry" />
        </mxCell>
        <mxCell id="Wj6WKn07O_vQE6K_EIfa-21" value="TRUE" style="edgeStyle=orthogonalEdgeStyle;rounded=0;orthogonalLoop=1;jettySize=auto;html=1;" edge="1" parent="1" source="Wj6WKn07O_vQE6K_EIfa-18" target="Wj6WKn07O_vQE6K_EIfa-17">
          <mxGeometry relative="1" as="geometry" />
        </mxCell>
        <mxCell id="Wj6WKn07O_vQE6K_EIfa-18" value="angkaString !== 0" style="rhombus;whiteSpace=wrap;html=1;" vertex="1" parent="1">
          <mxGeometry x="521.25" y="540" width="122.5" height="110" as="geometry" />
        </mxCell>
        <mxCell id="Wj6WKn07O_vQE6K_EIfa-23" value="" style="edgeStyle=orthogonalEdgeStyle;rounded=0;orthogonalLoop=1;jettySize=auto;html=1;" edge="1" parent="1" source="Wj6WKn07O_vQE6K_EIfa-19" target="Wj6WKn07O_vQE6K_EIfa-14">
          <mxGeometry relative="1" as="geometry" />
        </mxCell>
        <mxCell id="Wj6WKn07O_vQE6K_EIfa-19" value="i = i + 1" style="rounded=0;whiteSpace=wrap;html=1;" vertex="1" parent="1">
          <mxGeometry x="340" y="400" width="120" height="60" as="geometry" />
        </mxCell>
        <mxCell id="Wj6WKn07O_vQE6K_EIfa-24" value="i &amp;lt; arr.length" style="rhombus;whiteSpace=wrap;html=1;" vertex="1" parent="1">
          <mxGeometry x="730" y="367.5" width="140" height="125" as="geometry" />
        </mxCell>
      </root>
    </mxGraphModel>
  </diagram>
</mxfile>
